<svg width="188" height="188" viewBox="0 0 188 188" fill="none" xmlns="http://www.w3.org/2000/svg">
<g clip-path="url(#clip0)">
<path d="M149.078 44.7969H38.9219C29.8105 44.7969 22.3984 52.2089 22.3984 61.3203V171.477C22.3984 180.588 29.8105 188 38.9219 188H149.078C158.19 188 165.602 180.588 165.602 171.477V61.3203C165.602 52.2086 158.19 44.7969 149.078 44.7969Z" fill="url(#paint0_linear)" fill-opacity="0.8"/>
<path d="M94 66.8281C72.7398 66.8281 55.4453 84.1227 55.4453 105.383V127.414C55.4453 148.674 72.7398 165.969 94 165.969C115.26 165.969 132.555 148.674 132.555 127.414V105.383C132.555 84.1227 115.26 66.8281 94 66.8281ZM82.9844 121.906C79.8996 121.906 77.4766 119.482 77.4766 116.398C77.4766 113.314 79.8996 110.891 82.9844 110.891C86.0691 110.891 88.4922 113.314 88.4922 116.398C88.4922 119.482 86.0691 121.906 82.9844 121.906ZM105.016 121.906C101.931 121.906 99.5078 119.482 99.5078 116.398C99.5078 113.314 101.931 110.891 105.016 110.891C108.1 110.891 110.523 113.314 110.523 116.398C110.523 119.482 108.1 121.906 105.016 121.906ZM74.5292 19.0596C85.265 8.32378 102.735 8.32378 113.471 19.0596C115.623 21.211 119.108 21.211 121.26 19.0596C123.411 16.9083 123.411 13.4225 121.26 11.2712C106.221 -3.75706 81.7796 -3.75706 66.7407 11.2712C64.5894 13.4225 64.5894 16.9083 66.7407 19.0596C68.8921 21.211 72.3774 21.211 74.5292 19.0596ZM82.3172 26.848C80.1658 28.9994 80.1658 32.4851 82.3172 34.6364C84.4685 36.7878 87.9543 36.7878 90.1056 34.6364C92.257 32.4851 95.7427 32.4851 97.894 34.6364C100.046 36.7878 103.531 36.7878 105.682 34.6364C107.834 32.4851 107.834 28.9994 105.682 26.848C99.2497 20.4042 88.7503 20.4042 82.3172 26.848Z" fill="url(#paint1_linear)"/>
</g>
<defs>
<linearGradient id="paint0_linear" x1="94" y1="44.7969" x2="94" y2="188" gradientUnits="userSpaceOnUse">
<stop stop-color="#00EECE"/>
<stop offset="1" stop-color="#00A2FD"/>
</linearGradient>
<linearGradient id="paint1_linear" x1="94" y1="36.4162" x2="94" y2="0" gradientUnits="userSpaceOnUse">
<stop stop-color="#C2E9FF"/>
<stop offset="1" stop-color="#F2F3FF"/>
</linearGradient>
<clipPath id="clip0">
<rect width="188" height="188" fill="white"/>
</clipPath>
</defs>
</svg>
