<svg width="30" height="30" viewBox="0 0 30 30" fill="none" xmlns="http://www.w3.org/2000/svg">
<path d="M27.6463 17.3725C27.6463 23.8025 27.0018 28.7437 26.9743 28.9512C26.9485 29.148 26.7932 29.3033 26.5963 29.3291C26.5354 29.3367 26.0696 29.3976 25.2786 29.4797C23.3661 29.6777 19.5563 30 15 30C8.54712 30 3.45415 29.3361 3.40376 29.3291C3.20688 29.3033 3.05161 29.148 3.02583 28.9512C3.0188 28.9008 2.35376 23.8154 2.35376 17.3725C2.35376 10.9289 3.0188 5.84414 3.02583 5.79375C3.05161 5.59629 3.20688 5.4416 3.40376 5.41582C3.61118 5.38828 8.56001 4.74492 15 4.74492C19.5065 4.74492 23.3497 5.06894 25.2756 5.2664C26.1071 5.35195 26.5811 5.41347 26.5963 5.41582C26.7932 5.4416 26.9485 5.59687 26.9743 5.79375C26.9813 5.84414 27.6463 10.9289 27.6463 17.3725Z" fill="#CFCFDE"/>
<path d="M26.9742 5.79375C26.9813 5.84414 27.6463 10.9289 27.6463 17.3725C27.6463 23.8025 27.0018 28.7437 26.9742 28.9512C26.9485 29.148 26.7932 29.3033 26.5963 29.3291C26.5354 29.3367 26.0696 29.3976 25.2785 29.4797C25.5141 27.1875 25.8885 22.7121 25.8885 17.3725C25.8885 12.0885 25.5117 7.57382 25.2756 5.2664C26.107 5.35195 26.5811 5.41347 26.5963 5.41582C26.7932 5.4416 26.9485 5.59687 26.9742 5.79375Z" fill="#9F9FBE"/>
<path d="M23.1543 9.7677C23.1226 9.4851 22.8997 9.26238 22.6171 9.23068C21.5034 9.10576 18.5644 8.81982 15 8.81982C11.4356 8.81982 8.49656 9.10576 7.38287 9.23068C7.10021 9.26238 6.87744 9.4851 6.84568 9.7677C6.72053 10.8802 6.4343 13.8143 6.4343 17.3724C6.4343 20.9305 6.72059 23.8646 6.84568 24.9771C6.8775 25.2597 7.10027 25.4824 7.38287 25.5141C8.49656 25.639 11.4356 25.925 15 25.925C18.5644 25.925 21.5034 25.639 22.6171 25.5141C22.8998 25.4824 23.1226 25.2597 23.1543 24.9771C23.2795 23.8646 23.5657 20.9305 23.5657 17.3724C23.5657 13.8143 23.2795 10.8802 23.1543 9.7677Z" fill="#F4F4F7"/>
<path d="M15.0001 17.2966C13.5793 17.2966 12.4308 18.4094 12.3853 19.83C12.3735 20.1998 12.3675 20.524 12.3675 20.7935C12.3675 22.0421 12.4928 23 12.4981 23.0402C12.5155 23.1714 12.6189 23.2747 12.7501 23.2921C12.7904 23.2974 13.7496 23.4224 15.0001 23.4224C16.2505 23.4224 17.2098 23.2974 17.25 23.2921C17.3813 23.2747 17.4846 23.1714 17.502 23.0402C17.5074 23 17.6326 22.0421 17.6326 20.7935C17.6326 20.5239 17.6266 20.1998 17.6148 19.83C17.5694 18.4094 16.4209 17.2966 15.0001 17.2966Z" fill="#8989A8"/>
<path d="M11.1176 11.3223C10.4714 11.3223 9.94574 11.848 9.94574 12.4942V15.4239C9.94574 16.07 10.4714 16.5957 11.1176 16.5957C11.7638 16.5957 12.2895 16.07 12.2895 15.4239V12.4942C12.2895 11.8481 11.7638 11.3223 11.1176 11.3223Z" fill="#8989A8"/>
<path d="M18.8826 11.3223C18.2364 11.3223 17.7107 11.848 17.7107 12.4942V15.4239C17.7107 16.07 18.2364 16.5957 18.8826 16.5957C19.5288 16.5957 20.0545 16.07 20.0545 15.4239V12.4942C20.0545 11.8481 19.5288 11.3223 18.8826 11.3223Z" fill="#8989A8"/>
<path d="M15 1.81828C14.3127 1.81828 13.6667 2.08647 13.1809 2.57338C13.0094 2.74518 13.0098 3.02344 13.1816 3.19483C13.3533 3.36621 13.6316 3.36592 13.803 3.19412C14.1228 2.87367 14.5479 2.69719 15 2.69719C15.4521 2.69719 15.8772 2.87367 16.1969 3.19412C16.2828 3.28014 16.3954 3.32321 16.508 3.32321C16.6203 3.32321 16.7326 3.28043 16.8184 3.19483C16.9902 3.02338 16.9905 2.74518 16.8191 2.57338C16.3332 2.08647 15.6872 1.81828 15 1.81828Z" fill="#00EECE"/>
<path d="M18.1021 1.28766C17.2736 0.457266 16.1719 0 15 0C13.8281 0 12.7264 0.457266 11.8979 1.28766C11.7265 1.45945 11.7268 1.73771 11.8986 1.9091C12.0704 2.08049 12.3486 2.0802 12.5201 1.9084C13.1825 1.24453 14.0633 0.878906 15 0.878906C15.9367 0.878906 16.8175 1.24453 17.4799 1.9084C17.5658 1.99441 17.6784 2.03748 17.791 2.03748C17.9033 2.03748 18.0156 1.99471 18.1014 1.9091C18.2732 1.73766 18.2735 1.45939 18.1021 1.28766Z" fill="#00EECE"/>
<path d="M5.36954 8.15385C5.61224 8.15385 5.80899 7.9571 5.80899 7.7144C5.80899 7.4717 5.61224 7.27495 5.36954 7.27495C5.12683 7.27495 4.93008 7.4717 4.93008 7.7144C4.93008 7.9571 5.12683 8.15385 5.36954 8.15385Z" fill="#9F9FBE"/>
<path d="M24.6304 8.15385C24.8731 8.15385 25.0699 7.9571 25.0699 7.7144C25.0699 7.4717 24.8731 7.27495 24.6304 7.27495C24.3877 7.27495 24.191 7.4717 24.191 7.7144C24.191 7.9571 24.3877 8.15385 24.6304 8.15385Z" fill="#9F9FBE"/>
<path d="M5.36954 27.4699C5.61224 27.4699 5.80899 27.2731 5.80899 27.0304C5.80899 26.7877 5.61224 26.591 5.36954 26.591C5.12683 26.591 4.93008 26.7877 4.93008 27.0304C4.93008 27.2731 5.12683 27.4699 5.36954 27.4699Z" fill="#9F9FBE"/>
<path d="M24.6304 27.4699C24.8731 27.4699 25.0699 27.2731 25.0699 27.0304C25.0699 26.7877 24.8731 26.591 24.6304 26.591C24.3877 26.591 24.191 26.7877 24.191 27.0304C24.191 27.2731 24.3877 27.4699 24.6304 27.4699Z" fill="#9F9FBE"/>
</svg>
